<?xml version="1.0" encoding="utf-8"?>
<!-- Generator: Adobe Illustrator 23.0.5, SVG Export Plug-In . SVG Version: 6.00 Build 0)  -->
<svg version="1.1" id="Layer_1" xmlns="http://www.w3.org/2000/svg" xmlns:xlink="http://www.w3.org/1999/xlink" x="0px" y="0px"
	 viewBox="0 0 131 40" style="enable-background:new 0 0 131 40;" xml:space="preserve">
<style type="text/css">
	.st0{display:none;fill:url(#SVGID_1_);}
	.st1{display:none;fill:#FFFFFF;}
	.st2{display:none;fill-rule:evenodd;clip-rule:evenodd;fill:url(#SVGID_2_);}
	.st3{fill:url(#SVGID_3_);}
	.st4{fill:#FFFFFF;}
	.st5{fill:url(#SVGID_4_);}
	.st6{fill:none;}
	.st7{fill:url(#SVGID_5_);}
	.st8{fill:url(#SVGID_6_);}
	.st9{fill:#F800FF;}
	.st10{fill:url(#SVGID_7_);}
	.st11{fill:url(#SVGID_8_);}
	.st12{fill:url(#SVGID_9_);}
	.st13{fill:url(#SVGID_10_);}
</style>
<linearGradient id="SVGID_1_" gradientUnits="userSpaceOnUse" x1="4.6073" y1="17.3431" x2="34.0468" y2="27.4643" gradientTransform="matrix(1 0 0 -1 0 41.2756)">
	<stop  offset="0" style="stop-color:#F89E00"/>
	<stop  offset="1" style="stop-color:#DA2F68"/>
</linearGradient>
<circle class="st0" cx="17.5" cy="19.5" r="13.5"/>
<path class="st1" d="M10.4,15.1c4.2-1,8.3-2.1,12.5-3.1c0.2,0.8,0.4,1.7,0.7,2.5c-3.3,0.8-6.5,1.6-9.8,2.4c0,0,0,0,0,0h10.1
	c0,0,0,0.1,0,0.1c0,2.2,0,4.4,0,6.6c0,1.2-1,2.3-2.2,2.3c-0.1,0-0.2,0-0.4,0c-2.6,0-5.3,0-7.9,0c-0.7,0-1.2-0.2-1.7-0.7
	c-0.4-0.4-0.7-0.9-0.7-1.5c0-0.1,0-0.2,0-0.4c0-1.9,0-3.9,0-5.8c0-0.2,0-0.4-0.1-0.6C10.8,16.4,10.6,15.8,10.4,15.1
	C10.4,15.2,10.4,15.2,10.4,15.1z M11.6,19.6v0.1c0,1.3,0,2.6,0,3.9c0,0.1,0,0.1,0,0.2c0.1,0.9,0.9,1.5,1.8,1.5c2.7,0,5.3,0,8,0
	c0.1,0,0.1,0,0.2,0c1-0.1,1.7-0.8,1.7-1.8c0-1.3,0-2.6,0-3.9v-0.1H11.6z M13.5,17.6C13.5,17.6,13.5,17.7,13.5,17.6
	c0.3,0.5,0.6,0.9,0.9,1.4c0,0,0.1,0.1,0.1,0.1c0.4,0,0.7,0,1.1,0c0,0,0.1,0,0.1,0c0,0,0,0,0,0c-0.3-0.4-0.6-0.9-0.9-1.3
	c0,0-0.1,0-0.1,0c-0.2,0-0.4,0-0.6,0C13.9,17.6,13.7,17.6,13.5,17.6L13.5,17.6z M18.6,19C18.6,19,18.6,19,18.6,19
	c-0.3-0.5-0.6-0.9-0.9-1.4c0,0-0.1-0.1-0.1-0.1c-0.4,0-0.7,0-1.1,0c0,0,0,0-0.1,0c0,0,0,0,0,0.1c0.3,0.4,0.6,0.8,0.8,1.2
	c0.1,0.1,0.2,0.2,0.4,0.2C17.9,19,18.3,19,18.6,19L18.6,19z M19.2,17.6C19.3,17.6,19.3,17.7,19.2,17.6c0.3,0.5,0.6,0.9,0.9,1.4
	c0,0.1,0.1,0.1,0.1,0.1c0.4,0,0.7,0,1.1,0c0,0,0.1,0,0.1,0c0,0,0,0,0,0c-0.3-0.4-0.6-0.9-0.9-1.3c0,0-0.1,0-0.1,0
	c-0.2,0-0.4,0-0.6,0C19.6,17.6,19.4,17.6,19.2,17.6L19.2,17.6z M21.1,14.5C21.1,14.5,21.1,14.5,21.1,14.5c-0.4-0.4-0.9-0.7-1.3-1.1
	c0,0-0.1,0-0.1,0c-0.4,0.1-0.7,0.2-1.1,0.3c0,0,0,0-0.1,0c0,0,0,0,0.1,0c0.4,0.3,0.7,0.6,1.1,0.9c0.1,0.1,0.3,0.2,0.5,0.1
	C20.4,14.7,20.8,14.6,21.1,14.5z M15.5,15.9C15.5,15.9,15.5,15.9,15.5,15.9c-0.4-0.4-0.8-0.7-1.2-1.1c-0.1,0-0.1,0-0.2,0
	c-0.3,0.1-0.6,0.2-0.9,0.2c-0.1,0-0.1,0-0.2,0.1c0.1,0.1,0.2,0.2,0.3,0.2c0.3,0.3,0.7,0.6,1,0.8c0,0,0.1,0,0.1,0
	C14.7,16.1,15.1,16,15.5,15.9z M15.8,14.4C15.8,14.4,15.8,14.4,15.8,14.4c0.4,0.4,0.8,0.7,1.3,1.1c0,0,0.1,0,0.1,0
	c0.3-0.1,0.7-0.2,1-0.3c0,0,0.1,0,0.1,0c-0.4-0.4-0.8-0.7-1.2-1c-0.1-0.1-0.2-0.1-0.3-0.1c-0.1,0-0.1,0-0.2,0.1
	C16.4,14.3,16.1,14.3,15.8,14.4L15.8,14.4z M11.6,19h1.2c0,0,0,0,0,0c-0.3-0.5-0.6-0.9-1-1.4c0,0,0,0-0.1,0c-0.1,0-0.1,0-0.2,0
	L11.6,19L11.6,19z M11.5,16.9c0.4-0.1,0.8-0.2,1.2-0.3c0,0-0.1,0-0.1-0.1c-0.4-0.3-0.8-0.6-1.1-1c-0.1-0.1-0.2-0.1-0.3,0
	C11.3,16,11.4,16.5,11.5,16.9L11.5,16.9z M22.1,17.6c0.3,0.4,0.6,0.9,0.9,1.3c0.1,0.1,0.2,0.1,0.3,0.1v-1.4L22.1,17.6L22.1,17.6z
	 M22.5,12.7c-0.4,0.1-0.8,0.2-1.1,0.3l0,0c0,0,0,0,0,0c0.4,0.3,0.8,0.6,1.1,1c0.1,0.1,0.2,0.1,0.3,0C22.7,13.6,22.6,13.2,22.5,12.7
	L22.5,12.7z"/>
<path class="st1" d="M16.4,20.8C16.4,20.8,16.4,20.8,16.4,20.8c0.9,0.5,1.7,0.9,2.5,1.4c0.1,0.1,0.3,0.2,0.4,0.2
	c0.1,0.1,0.1,0.1,0,0.2c-0.8,0.5-1.6,0.9-2.4,1.4c-0.1,0.1-0.3,0.2-0.4,0.2c-0.1,0.1-0.2,0-0.2-0.1c0-1.1,0-2.2,0-3.2
	C16.3,20.8,16.3,20.8,16.4,20.8z"/>
<linearGradient id="SVGID_2_" gradientUnits="userSpaceOnUse" x1="35.3437" y1="20.9706" x2="124.3006" y2="23.2633" gradientTransform="matrix(1 0 0 -1 0 41.2756)">
	<stop  offset="0" style="stop-color:#F89E00"/>
	<stop  offset="1" style="stop-color:#DA2F68"/>
</linearGradient>
<path class="st2" d="M96.7,21v-6.4h4.6V21H96.7z M91.2,21l2.8-6.4h-5.1L86.8,21H91.2z M86.1,23h4.2l-3.1,7h-3.7l-2.9-7h4.4l0.5,1.5
	L86.1,23z M84.4,21l-2.1-6.4h-5.1l2.7,6.4H84.4z M76.2,21c-0.1-1-0.5-2-1-2.8c-0.7-1.2-1.7-2.1-3-2.8c-1.2-0.7-2.7-1-4.3-1
	c-1.6,0-3,0.3-4.3,1c-1.2,0.7-2.2,1.6-3,2.8c-0.5,0.9-0.8,1.8-1,2.8h4.8c0.1-0.3,0.2-0.5,0.3-0.8c0.3-0.6,0.7-1.1,1.3-1.4
	c0.6-0.3,1.2-0.5,1.9-0.5c0.7,0,1.3,0.2,1.9,0.5c0.5,0.3,1,0.8,1.3,1.4c0.1,0.2,0.2,0.5,0.3,0.8H76.2z M76.2,23h-4.7
	c-0.1,0.5-0.2,0.9-0.4,1.3c-0.3,0.6-0.7,1.1-1.3,1.4c-0.5,0.3-1.2,0.5-1.9,0.5c-0.7,0-1.3-0.2-1.9-0.5c-0.5-0.3-1-0.8-1.3-1.4
	c-0.2-0.4-0.3-0.9-0.4-1.3h-4.7c0.1,1.3,0.4,2.4,1,3.4c0.7,1.2,1.7,2.1,3,2.8c1.3,0.7,2.7,1,4.3,1c1.6,0,3-0.3,4.3-1
	c1.3-0.7,2.2-1.6,3-2.8C75.8,25.4,76.1,24.3,76.2,23z M96.7,23h4.6v7h-4.6V23z M109.2,23l-5,7h5.5l2.6-4.5l3,4.5h5.5l-5-7H109.2z
	 M115.9,21l4.5-6.4h-5.5l-2.2,4.2l-2.8-4.2h-5.6L109,21H115.9z M99,11.6c-0.9,0-1.6-0.2-2.1-0.6c-0.5-0.4-0.7-1-0.7-1.8
	c0-0.7,0.3-1.3,0.8-1.7c0.5-0.4,1.2-0.7,2-0.7c0.9,0,1.5,0.2,2,0.6c0.5,0.4,0.7,1,0.7,1.7c0,0.7-0.3,1.3-0.8,1.7
	C100.5,11.3,99.9,11.6,99,11.6z M35.8,30V9.7h4.4l5.8,9.5l5.9-9.5h4.2V30h-4.8v-6.3c0-1.7,0-3.3,0.1-4.7c0-0.4,0.1-0.8,0.1-1.2
	l-4.7,7.3h-1.9l-4.6-7.2c0,0.3,0,0.7,0.1,1c0.1,1.4,0.1,3,0.1,4.8V30H35.8z"/>
<g>
	<linearGradient id="SVGID_3_" gradientUnits="userSpaceOnUse" x1="6.752592e-02" y1="19.0716" x2="32.8541" y2="19.9611">
		<stop  offset="0" style="stop-color:#2E3192"/>
		<stop  offset="1" style="stop-color:#27AAE1"/>
	</linearGradient>
	<circle class="st3" cx="16.5" cy="19.5" r="16.4"/>
	<path class="st4" d="M16.5,5.5c-7.8,0-14,6.3-14,14c0,7.8,6.3,14,14,14s14-6.3,14-14C30.5,11.8,24.2,5.5,16.5,5.5z M26,24.6
		L26,24.6L21.9,29V18l0,0.1V18l-5.4,7.5l0,0l-5.3-7.5l0-0.1v11l-4.1-4.4l0,0V11.2h5.3l4.3,6l4.3-6H26V24.6z"/>
	<linearGradient id="SVGID_4_" gradientUnits="userSpaceOnUse" x1="6.6418" y1="19.7815" x2="26.1614" y2="20.3111">
		<stop  offset="0" style="stop-color:#2E3192"/>
		<stop  offset="1" style="stop-color:#27AAE1"/>
	</linearGradient>
	<polygon class="st5" points="26,11.2 26,24.6 26,24.7 21.9,29 21.9,18 21.8,18.1 21.8,18 16.5,25.6 16.4,25.6 11.1,18.1 11.1,18 
		11.1,29 6.9,24.7 6.9,24.6 6.9,11.2 12.2,11.2 16.5,17.2 20.8,11.2 	"/>
</g>
<line class="st6" x1="39.9" y1="8" x2="38.3" y2="8"/>
<linearGradient id="SVGID_5_" gradientUnits="userSpaceOnUse" x1="33.8328" y1="20.9617" x2="129.9185" y2="20.9617">
	<stop  offset="0" style="stop-color:#2E3192"/>
	<stop  offset="1" style="stop-color:#27AAE1"/>
</linearGradient>
<polygon class="st7" points="58.2,10.9 58.2,25.7 58.1,25.8 53.2,31 53.2,17.8 53.1,17.9 53.1,17.8 46.6,26.9 46.6,26.9 40.2,17.9 
	40.1,17.8 40.1,31 35.1,25.8 35.1,25.7 35.1,10.9 41.5,10.9 46.6,18.2 51.8,10.9 "/>
<linearGradient id="SVGID_6_" gradientUnits="userSpaceOnUse" x1="33.8328" y1="19.3632" x2="129.9185" y2="19.3632">
	<stop  offset="0" style="stop-color:#2E3192"/>
	<stop  offset="1" style="stop-color:#27AAE1"/>
</linearGradient>
<path class="st8" d="M61.8,24.8c-0.9-0.5-1.7-1.2-2.2-2.1c-0.5-0.9-0.8-2-0.8-3.3c0-1.2,0.3-2.3,0.8-3.2c0.5-0.9,1.3-1.7,2.2-2.2
	c0.9-0.5,2-0.8,3.2-0.8c1.2,0,2.2,0.3,3.2,0.8c0.9,0.5,1.7,1.2,2.2,2.2c0.5,0.9,0.8,2,0.8,3.2c0,1.2-0.3,2.3-0.8,3.2
	c-0.6,0.9-1.3,1.7-2.3,2.2c-1,0.5-2,0.8-3.2,0.8C63.8,25.5,62.7,25.3,61.8,24.8z M66.8,21.6c0.5-0.5,0.7-1.3,0.7-2.2
	c0-1-0.2-1.7-0.7-2.2c-0.5-0.5-1.1-0.8-1.8-0.8c-0.7,0-1.3,0.3-1.8,0.8c-0.5,0.5-0.7,1.2-0.7,2.2c0,1,0.2,1.7,0.7,2.2
	c0.5,0.5,1,0.8,1.7,0.8C65.7,22.3,66.3,22.1,66.8,21.6z"/>
<polygon class="st9" points="84.7,19.4 84.7,19.4 72.8,25.9 72.8,12.9 "/>
<linearGradient id="SVGID_7_" gradientUnits="userSpaceOnUse" x1="33.8328" y1="16.7577" x2="129.9185" y2="16.7577">
	<stop  offset="0" style="stop-color:#2E3192"/>
	<stop  offset="1" style="stop-color:#27AAE1"/>
</linearGradient>
<path class="st10" d="M86.9,11.6c-0.4-0.4-0.6-0.8-0.6-1.4c0-0.6,0.2-1,0.6-1.4c0.4-0.4,0.9-0.6,1.6-0.6c0.6,0,1.1,0.2,1.6,0.6
	c0.4,0.4,0.6,0.9,0.6,1.4c0,0.6-0.2,1-0.6,1.4c-0.4,0.4-0.9,0.6-1.6,0.6C87.8,12.1,87.3,11.9,86.9,11.6z M90.3,13.4v12h-3.7v-12
	H90.3z"/>
<linearGradient id="SVGID_8_" gradientUnits="userSpaceOnUse" x1="33.8328" y1="19.3632" x2="129.9185" y2="19.3632">
	<stop  offset="0" style="stop-color:#2E3192"/>
	<stop  offset="1" style="stop-color:#27AAE1"/>
</linearGradient>
<path class="st11" d="M104.1,20.2h-8.3c0.1,0.7,0.3,1.3,0.7,1.7c0.4,0.4,0.9,0.6,1.6,0.6c0.9,0,1.6-0.4,1.9-1.2h3.9
	c-0.2,0.8-0.6,1.5-1.1,2.1c-0.5,0.6-1.2,1.1-2,1.5c-0.8,0.4-1.7,0.5-2.6,0.5c-1.2,0-2.2-0.2-3.1-0.8c-0.9-0.5-1.6-1.2-2.1-2.1
	c-0.5-0.9-0.8-2-0.8-3.3c0-1.2,0.3-2.3,0.8-3.3c0.5-0.9,1.2-1.6,2.1-2.1c0.9-0.5,2-0.8,3.2-0.8c1.2,0,2.2,0.2,3.1,0.7
	c0.9,0.5,1.6,1.2,2.1,2.1c0.5,0.9,0.8,2,0.8,3.2C104.2,19.5,104.2,19.9,104.1,20.2z M100.5,18.2c0-0.6-0.2-1.1-0.6-1.5
	c-0.4-0.4-1-0.6-1.6-0.6c-0.6,0-1.1,0.2-1.6,0.5c-0.4,0.4-0.7,0.9-0.8,1.5H100.5z"/>
<linearGradient id="SVGID_9_" gradientUnits="userSpaceOnUse" x1="33.8328" y1="19.3632" x2="129.9185" y2="19.3632">
	<stop  offset="0" style="stop-color:#2E3192"/>
	<stop  offset="1" style="stop-color:#27AAE1"/>
</linearGradient>
<path class="st12" d="M108.2,25c-0.8-0.4-1.5-0.8-1.9-1.5c-0.5-0.6-0.7-1.3-0.8-2.1h3.6c0,0.4,0.2,0.8,0.6,1
	c0.3,0.3,0.8,0.4,1.3,0.4c0.5,0,0.8-0.1,1.1-0.3c0.3-0.2,0.4-0.4,0.4-0.7c0-0.3-0.2-0.6-0.5-0.8c-0.4-0.2-0.9-0.3-1.7-0.5
	c-0.9-0.2-1.6-0.4-2.1-0.6c-0.6-0.2-1.1-0.6-1.5-1.1c-0.4-0.5-0.6-1.1-0.6-1.9c0-0.7,0.2-1.3,0.6-1.9c0.4-0.6,0.9-1,1.7-1.3
	c0.7-0.3,1.6-0.5,2.6-0.5c1.5,0,2.7,0.4,3.5,1.1c0.9,0.7,1.4,1.7,1.5,3h-3.4c-0.1-0.4-0.2-0.7-0.5-1c-0.3-0.2-0.7-0.4-1.2-0.4
	c-0.4,0-0.8,0.1-1,0.2c-0.2,0.2-0.3,0.4-0.3,0.7c0,0.3,0.2,0.6,0.5,0.8c0.4,0.2,0.9,0.3,1.7,0.5c0.9,0.2,1.6,0.5,2.2,0.7
	c0.6,0.2,1,0.6,1.5,1.1c0.4,0.5,0.6,1.2,0.7,2c0,0.7-0.2,1.3-0.6,1.9c-0.4,0.6-1,1-1.7,1.3c-0.7,0.3-1.6,0.5-2.6,0.5
	C110,25.5,109,25.3,108.2,25z"/>
<linearGradient id="SVGID_10_" gradientUnits="userSpaceOnUse" x1="33.8328" y1="22.2046" x2="129.9185" y2="22.2046">
	<stop  offset="0" style="stop-color:#2E3192"/>
	<stop  offset="1" style="stop-color:#27AAE1"/>
</linearGradient>
<path class="st13" d="M130.3,13.4L122.8,31h-3.9l2.7-6.1l-4.9-11.6h4.1l2.8,7.5l2.7-7.5H130.3z"/>
</svg>
